<?xml version="1.0" encoding="UTF-8"?>
<svg width="700pt" fill="#33b249" height="700pt" version="1.1" viewBox="0 0 700 700" xmlns="http://www.w3.org/2000/svg">
 <path d="m350 87.5c-106.14 0-192.5 86.363-192.5 192.5s86.363 192.5 192.5 192.5 192.5-86.363 192.5-192.5-86.363-192.5-192.5-192.5zm70.699 158.2c-6.8438 6.8438-17.902 6.8438-24.746 0l-28.453-28.453v167.75c0 9.6758-7.8242 17.5-17.5 17.5s-17.5-7.8242-17.5-17.5v-167.75l-28.453 28.453c-6.8438 6.8438-17.902 6.8438-24.746 0s-6.8438-17.902 0-24.746l58.309-58.309c6.4922-6.7734 18.289-6.7734 24.797 0l58.309 58.309c6.8281 6.8438 6.8281 17.906-0.015625 24.746z"/>
</svg>
